<?xml version="1.0" standalone="no"?>
<!DOCTYPE svg PUBLIC "-//W3C//DTD SVG 1.1//EN" "http://www.w3.org/Graphics/SVG/1.1/DTD/svg11.dtd">
<svg version="1.1" width="1200" height="502" onload="init(evt)" viewBox="0 0 1200 502" xmlns="http://www.w3.org/2000/svg" xmlns:xlink="http://www.w3.org/1999/xlink">
<!-- Flame graph stack visualization. See https://github.com/brendangregg/FlameGraph for latest version, and http://www.brendangregg.com/flamegraphs.html for examples. -->
<!-- NOTES:  -->
<defs>
	<linearGradient id="background" y1="0" y2="1" x1="0" x2="0" >
		<stop stop-color="#eeeeee" offset="5%" />
		<stop stop-color="#eeeeb0" offset="95%" />
	</linearGradient>
</defs>
<style type="text/css">
	text { font-family:Verdana; font-size:12px; fill:rgb(0,0,0); }
	#search, #ignorecase { opacity:0.1; cursor:pointer; }
	#search:hover, #search.show, #ignorecase:hover, #ignorecase.show { opacity:1; }
	#subtitle { text-anchor:middle; font-color:rgb(160,160,160); }
	#title { text-anchor:middle; font-size:17px}
	#unzoom { cursor:pointer; }
	#frames > *:hover { stroke:black; stroke-width:0.5; cursor:pointer; }
	.hide { display:none; }
	.parent { opacity:0.5; }
</style>
<script type="text/ecmascript">
<![CDATA[
	"use strict";
	var details, searchbtn, unzoombtn, matchedtxt, svg, searching, currentSearchTerm, ignorecase, ignorecaseBtn;
	function init(evt) {
		details = document.getElementById("details").firstChild;
		searchbtn = document.getElementById("search");
		ignorecaseBtn = document.getElementById("ignorecase");
		unzoombtn = document.getElementById("unzoom");
		matchedtxt = document.getElementById("matched");
		svg = document.getElementsByTagName("svg")[0];
		searching = 0;
		currentSearchTerm = null;

		// use GET parameters to restore a flamegraphs state.
		var params = get_params();
		if (params.x && params.y)
			zoom(find_group(document.querySelector('[x="' + params.x + '"][y="' + params.y + '"]')));
                if (params.s) search(params.s);
	}

	// event listeners
	window.addEventListener("click", function(e) {
		var target = find_group(e.target);
		if (target) {
			if (target.nodeName == "a") {
				if (e.ctrlKey === false) return;
				e.preventDefault();
			}
			if (target.classList.contains("parent")) unzoom(true);
			zoom(target);
			if (!document.querySelector('.parent')) {
				// we have basically done a clearzoom so clear the url
				var params = get_params();
				if (params.x) delete params.x;
				if (params.y) delete params.y;
				history.replaceState(null, null, parse_params(params));
				unzoombtn.classList.add("hide");
				return;
			}

			// set parameters for zoom state
			var el = target.querySelector("rect");
			if (el && el.attributes && el.attributes.y && el.attributes._orig_x) {
				var params = get_params()
				params.x = el.attributes._orig_x.value;
				params.y = el.attributes.y.value;
				history.replaceState(null, null, parse_params(params));
			}
		}
		else if (e.target.id == "unzoom") clearzoom();
		else if (e.target.id == "search") search_prompt();
		else if (e.target.id == "ignorecase") toggle_ignorecase();
	}, false)

	// mouse-over for info
	// show
	window.addEventListener("mouseover", function(e) {
		var target = find_group(e.target);
		if (target) details.nodeValue = "Function: " + g_to_text(target);
	}, false)

	// clear
	window.addEventListener("mouseout", function(e) {
		var target = find_group(e.target);
		if (target) details.nodeValue = ' ';
	}, false)

	// ctrl-F for search
	// ctrl-I to toggle case-sensitive search
	window.addEventListener("keydown",function (e) {
		if (e.keyCode === 114 || (e.ctrlKey && e.keyCode === 70)) {
			e.preventDefault();
			search_prompt();
		}
		else if (e.ctrlKey && e.keyCode === 73) {
			e.preventDefault();
			toggle_ignorecase();
		}
	}, false)

	// functions
	function get_params() {
		var params = {};
		var paramsarr = window.location.search.substr(1).split('&');
		for (var i = 0; i < paramsarr.length; ++i) {
			var tmp = paramsarr[i].split("=");
			if (!tmp[0] || !tmp[1]) continue;
			params[tmp[0]]  = decodeURIComponent(tmp[1]);
		}
		return params;
	}
	function parse_params(params) {
		var uri = "?";
		for (var key in params) {
			uri += key + '=' + encodeURIComponent(params[key]) + '&';
		}
		if (uri.slice(-1) == "&")
			uri = uri.substring(0, uri.length - 1);
		if (uri == '?')
			uri = window.location.href.split('?')[0];
		return uri;
	}
	function find_child(node, selector) {
		var children = node.querySelectorAll(selector);
		if (children.length) return children[0];
	}
	function find_group(node) {
		var parent = node.parentElement;
		if (!parent) return;
		if (parent.id == "frames") return node;
		return find_group(parent);
	}
	function orig_save(e, attr, val) {
		if (e.attributes["_orig_" + attr] != undefined) return;
		if (e.attributes[attr] == undefined) return;
		if (val == undefined) val = e.attributes[attr].value;
		e.setAttribute("_orig_" + attr, val);
	}
	function orig_load(e, attr) {
		if (e.attributes["_orig_"+attr] == undefined) return;
		e.attributes[attr].value = e.attributes["_orig_" + attr].value;
		e.removeAttribute("_orig_"+attr);
	}
	function g_to_text(e) {
		var text = find_child(e, "title").firstChild.nodeValue;
		return (text)
	}
	function g_to_func(e) {
		var func = g_to_text(e);
		// if there's any manipulation we want to do to the function
		// name before it's searched, do it here before returning.
		return (func);
	}
	function update_text(e) {
		var r = find_child(e, "rect");
		var t = find_child(e, "text");
		var w = parseFloat(r.attributes.width.value) -3;
		var txt = find_child(e, "title").textContent.replace(/\([^(]*\)$/,"");
		t.attributes.x.value = parseFloat(r.attributes.x.value) + 3;

		// Smaller than this size won't fit anything
		if (w < 2 * 12 * 0.59) {
			t.textContent = "";
			return;
		}

		t.textContent = txt;
		var sl = t.getSubStringLength(0, txt.length);
		// check if only whitespace or if we can fit the entire string into width w
		if (/^ *$/.test(txt) || sl < w)
			return;

		// this isn't perfect, but gives a good starting point
		// and avoids calling getSubStringLength too often
		var start = Math.floor((w/sl) * txt.length);
		for (var x = start; x > 0; x = x-2) {
			if (t.getSubStringLength(0, x + 2) <= w) {
				t.textContent = txt.substring(0, x) + "..";
				return;
			}
		}
		t.textContent = "";
	}

	// zoom
	function zoom_reset(e) {
		if (e.attributes != undefined) {
			orig_load(e, "x");
			orig_load(e, "width");
		}
		if (e.childNodes == undefined) return;
		for (var i = 0, c = e.childNodes; i < c.length; i++) {
			zoom_reset(c[i]);
		}
	}
	function zoom_child(e, x, ratio) {
		if (e.attributes != undefined) {
			if (e.attributes.x != undefined) {
				orig_save(e, "x");
				e.attributes.x.value = (parseFloat(e.attributes.x.value) - x - 10) * ratio + 10;
				if (e.tagName == "text")
					e.attributes.x.value = find_child(e.parentNode, "rect[x]").attributes.x.value + 3;
			}
			if (e.attributes.width != undefined) {
				orig_save(e, "width");
				e.attributes.width.value = parseFloat(e.attributes.width.value) * ratio;
			}
		}

		if (e.childNodes == undefined) return;
		for (var i = 0, c = e.childNodes; i < c.length; i++) {
			zoom_child(c[i], x - 10, ratio);
		}
	}
	function zoom_parent(e) {
		if (e.attributes) {
			if (e.attributes.x != undefined) {
				orig_save(e, "x");
				e.attributes.x.value = 10;
			}
			if (e.attributes.width != undefined) {
				orig_save(e, "width");
				e.attributes.width.value = parseInt(svg.width.baseVal.value) - (10 * 2);
			}
		}
		if (e.childNodes == undefined) return;
		for (var i = 0, c = e.childNodes; i < c.length; i++) {
			zoom_parent(c[i]);
		}
	}
	function zoom(node) {
		var attr = find_child(node, "rect").attributes;
		var width = parseFloat(attr.width.value);
		var xmin = parseFloat(attr.x.value);
		var xmax = parseFloat(xmin + width);
		var ymin = parseFloat(attr.y.value);
		var ratio = (svg.width.baseVal.value - 2 * 10) / width;

		// XXX: Workaround for JavaScript float issues (fix me)
		var fudge = 0.0001;

		unzoombtn.classList.remove("hide");

		var el = document.getElementById("frames").children;
		for (var i = 0; i < el.length; i++) {
			var e = el[i];
			var a = find_child(e, "rect").attributes;
			var ex = parseFloat(a.x.value);
			var ew = parseFloat(a.width.value);
			var upstack;
			// Is it an ancestor
			if (0 == 0) {
				upstack = parseFloat(a.y.value) > ymin;
			} else {
				upstack = parseFloat(a.y.value) < ymin;
			}
			if (upstack) {
				// Direct ancestor
				if (ex <= xmin && (ex+ew+fudge) >= xmax) {
					e.classList.add("parent");
					zoom_parent(e);
					update_text(e);
				}
				// not in current path
				else
					e.classList.add("hide");
			}
			// Children maybe
			else {
				// no common path
				if (ex < xmin || ex + fudge >= xmax) {
					e.classList.add("hide");
				}
				else {
					zoom_child(e, xmin, ratio);
					update_text(e);
				}
			}
		}
		search();
	}
	function unzoom(dont_update_text) {
		unzoombtn.classList.add("hide");
		var el = document.getElementById("frames").children;
		for(var i = 0; i < el.length; i++) {
			el[i].classList.remove("parent");
			el[i].classList.remove("hide");
			zoom_reset(el[i]);
			if(!dont_update_text) update_text(el[i]);
		}
		search();
	}
	function clearzoom() {
		unzoom();

		// remove zoom state
		var params = get_params();
		if (params.x) delete params.x;
		if (params.y) delete params.y;
		history.replaceState(null, null, parse_params(params));
	}

	// search
	function toggle_ignorecase() {
		ignorecase = !ignorecase;
		if (ignorecase) {
			ignorecaseBtn.classList.add("show");
		} else {
			ignorecaseBtn.classList.remove("show");
		}
		reset_search();
		search();
	}
	function reset_search() {
		var el = document.querySelectorAll("#frames rect");
		for (var i = 0; i < el.length; i++) {
			orig_load(el[i], "fill")
		}
		var params = get_params();
		delete params.s;
		history.replaceState(null, null, parse_params(params));
	}
	function search_prompt() {
		if (!searching) {
			var term = prompt("Enter a search term (regexp " +
			    "allowed, eg: ^ext4_)"
			    + (ignorecase ? ", ignoring case" : "")
			    + "\nPress Ctrl-i to toggle case sensitivity", "");
			if (term != null) search(term);
		} else {
			reset_search();
			searching = 0;
			currentSearchTerm = null;
			searchbtn.classList.remove("show");
			searchbtn.firstChild.nodeValue = "Search"
			matchedtxt.classList.add("hide");
			matchedtxt.firstChild.nodeValue = ""
		}
	}
	function search(term) {
		if (term) currentSearchTerm = term;
		if (currentSearchTerm === null) return;

		var re = new RegExp(currentSearchTerm, ignorecase ? 'i' : '');
		var el = document.getElementById("frames").children;
		var matches = new Object();
		var maxwidth = 0;
		for (var i = 0; i < el.length; i++) {
			var e = el[i];
			var func = g_to_func(e);
			var rect = find_child(e, "rect");
			if (func == null || rect == null)
				continue;

			// Save max width. Only works as we have a root frame
			var w = parseFloat(rect.attributes.width.value);
			if (w > maxwidth)
				maxwidth = w;

			if (func.match(re)) {
				// highlight
				var x = parseFloat(rect.attributes.x.value);
				orig_save(rect, "fill");
				rect.attributes.fill.value = "rgb(230,0,230)";

				// remember matches
				if (matches[x] == undefined) {
					matches[x] = w;
				} else {
					if (w > matches[x]) {
						// overwrite with parent
						matches[x] = w;
					}
				}
				searching = 1;
			}
		}
		if (!searching)
			return;
		var params = get_params();
		params.s = currentSearchTerm;
		history.replaceState(null, null, parse_params(params));

		searchbtn.classList.add("show");
		searchbtn.firstChild.nodeValue = "Reset Search";

		// calculate percent matched, excluding vertical overlap
		var count = 0;
		var lastx = -1;
		var lastw = 0;
		var keys = Array();
		for (k in matches) {
			if (matches.hasOwnProperty(k))
				keys.push(k);
		}
		// sort the matched frames by their x location
		// ascending, then width descending
		keys.sort(function(a, b){
			return a - b;
		});
		// Step through frames saving only the biggest bottom-up frames
		// thanks to the sort order. This relies on the tree property
		// where children are always smaller than their parents.
		var fudge = 0.0001;	// JavaScript floating point
		for (var k in keys) {
			var x = parseFloat(keys[k]);
			var w = matches[keys[k]];
			if (x >= lastx + lastw - fudge) {
				count += w;
				lastx = x;
				lastw = w;
			}
		}
		// display matched percent
		matchedtxt.classList.remove("hide");
		var pct = 100 * count / maxwidth;
		if (pct != 100) pct = pct.toFixed(1)
		matchedtxt.firstChild.nodeValue = "Matched: " + pct + "%";
	}
]]>
</script>
<rect x="0.0" y="0" width="1200.0" height="502.0" fill="url(#background)"  />
<text id="title" x="600.00" y="24" >Flame Graph</text>
<text id="details" x="10.00" y="485" > </text>
<text id="unzoom" x="10.00" y="24" class="hide">Reset Zoom</text>
<text id="search" x="1090.00" y="24" >Search</text>
<text id="ignorecase" x="1174.00" y="24" >ic</text>
<text id="matched" x="1090.00" y="485" > </text>
<g id="frames">
<g >
<title>[unknown] (103,546,273 samples, 6.69%)</title><rect x="794.0" y="117" width="79.0" height="15.0" fill="rgb(210,24,5)" rx="2" ry="2" />
<text  x="797.04" y="127.5" >[unknown]</text>
</g>
<g >
<title>[unknown] (843,413 samples, 0.05%)</title><rect x="10.0" y="277" width="0.6" height="15.0" fill="rgb(210,24,5)" rx="2" ry="2" />
<text  x="13.00" y="287.5" ></text>
</g>
<g >
<title>pthread_self@plt (1,598,003 samples, 0.10%)</title><rect x="1188.7" y="421" width="1.3" height="15.0" fill="rgb(207,13,3)" rx="2" ry="2" />
<text  x="1191.74" y="431.5" ></text>
</g>
<g >
<title>do_lookup_x (355,214,117 samples, 22.94%)</title><rect x="918.0" y="421" width="270.7" height="15.0" fill="rgb(245,187,44)" rx="2" ry="2" />
<text  x="921.00" y="431.5" >do_lookup_x</text>
</g>
<g >
<title>mmap64 (2,358,611 samples, 0.15%)</title><rect x="873.7" y="405" width="1.8" height="15.0" fill="rgb(220,70,16)" rx="2" ry="2" />
<text  x="876.70" y="415.5" ></text>
</g>
<g >
<title>[unknown] (209,458,557 samples, 13.53%)</title><rect x="713.3" y="181" width="159.7" height="15.0" fill="rgb(210,24,5)" rx="2" ry="2" />
<text  x="716.31" y="191.5" >[unknown]</text>
</g>
<g >
<title>[unknown] (78,383,473 samples, 5.06%)</title><rect x="101.6" y="357" width="59.7" height="15.0" fill="rgb(210,24,5)" rx="2" ry="2" />
<text  x="104.58" y="367.5" >[unkno..</text>
</g>
<g >
<title>[unknown] (952,241 samples, 0.06%)</title><rect x="195.8" y="213" width="0.7" height="15.0" fill="rgb(210,24,5)" rx="2" ry="2" />
<text  x="198.77" y="223.5" ></text>
</g>
<g >
<title>__sanitizer::SignalContext::IsMemoryAccess (953,228 samples, 0.06%)</title><rect x="16.0" y="389" width="0.7" height="15.0" fill="rgb(232,125,30)" rx="2" ry="2" />
<text  x="18.97" y="399.5" ></text>
</g>
<g >
<title>[unknown] (16,233,651 samples, 1.05%)</title><rect x="1176.4" y="213" width="12.3" height="15.0" fill="rgb(210,24,5)" rx="2" ry="2" />
<text  x="1179.37" y="223.5" ></text>
</g>
<g >
<title>[unknown] (2,358,611 samples, 0.15%)</title><rect x="873.7" y="309" width="1.8" height="15.0" fill="rgb(210,24,5)" rx="2" ry="2" />
<text  x="876.70" y="319.5" ></text>
</g>
<g >
<title>_dl_runtime_resolve_xsavec (55,766,127 samples, 3.60%)</title><rect x="875.5" y="421" width="42.5" height="15.0" fill="rgb(217,59,14)" rx="2" ry="2" />
<text  x="878.49" y="431.5" >_dl_..</text>
</g>
<g >
<title>[unknown] (574,683,783 samples, 37.12%)</title><rect x="434.9" y="293" width="438.1" height="15.0" fill="rgb(210,24,5)" rx="2" ry="2" />
<text  x="437.94" y="303.5" >[unknown]</text>
</g>
<g >
<title>[unknown] (843,413 samples, 0.05%)</title><rect x="10.0" y="309" width="0.6" height="15.0" fill="rgb(210,24,5)" rx="2" ry="2" />
<text  x="13.00" y="319.5" ></text>
</g>
<g >
<title>[unknown] (33,230,475 samples, 2.15%)</title><rect x="10.0" y="421" width="25.3" height="15.0" fill="rgb(210,24,5)" rx="2" ry="2" />
<text  x="13.00" y="431.5" >[..</text>
</g>
<g >
<title>__sanitizer::SignalContext::InitPcSpBp (2,779,602 samples, 0.18%)</title><rect x="13.8" y="389" width="2.2" height="15.0" fill="rgb(247,194,46)" rx="2" ry="2" />
<text  x="16.85" y="399.5" ></text>
</g>
<g >
<title>[unknown] (3,670,384 samples, 0.24%)</title><rect x="1185.9" y="149" width="2.8" height="15.0" fill="rgb(210,24,5)" rx="2" ry="2" />
<text  x="1188.95" y="159.5" ></text>
</g>
<g >
<title>[unknown] (77,348,451 samples, 5.00%)</title><rect x="102.4" y="341" width="58.9" height="15.0" fill="rgb(210,24,5)" rx="2" ry="2" />
<text  x="105.36" y="351.5" >[unkno..</text>
</g>
<g >
<title>__asan::ReportDeadlySignal (46,156,918 samples, 2.98%)</title><rect x="161.3" y="421" width="35.2" height="15.0" fill="rgb(213,38,9)" rx="2" ry="2" />
<text  x="164.32" y="431.5" >__..</text>
</g>
<g >
<title>_dl_lookup_symbol_x (3,892,193 samples, 0.25%)</title><rect x="24.6" y="389" width="3.0" height="15.0" fill="rgb(211,28,6)" rx="2" ry="2" />
<text  x="27.63" y="399.5" ></text>
</g>
<g >
<title>[unknown] (435,557,684 samples, 28.13%)</title><rect x="541.0" y="245" width="332.0" height="15.0" fill="rgb(210,24,5)" rx="2" ry="2" />
<text  x="543.98" y="255.5" >[unknown]</text>
</g>
<g >
<title>[unknown] (46,156,918 samples, 2.98%)</title><rect x="161.3" y="405" width="35.2" height="15.0" fill="rgb(210,24,5)" rx="2" ry="2" />
<text  x="164.32" y="415.5" >[u..</text>
</g>
<g >
<title>[unknown] (38,474,153 samples, 2.49%)</title><rect x="167.2" y="325" width="29.3" height="15.0" fill="rgb(210,24,5)" rx="2" ry="2" />
<text  x="170.17" y="335.5" >[u..</text>
</g>
<g >
<title>[unknown] (253,648,330 samples, 16.38%)</title><rect x="995.4" y="309" width="193.3" height="15.0" fill="rgb(210,24,5)" rx="2" ry="2" />
<text  x="998.41" y="319.5" >[unknown]</text>
</g>
<g >
<title>[unknown] (78,383,473 samples, 5.06%)</title><rect x="101.6" y="373" width="59.7" height="15.0" fill="rgb(210,24,5)" rx="2" ry="2" />
<text  x="104.58" y="383.5" >[unkno..</text>
</g>
<g >
<title>[unknown] (648,246,621 samples, 41.87%)</title><rect x="378.9" y="389" width="494.1" height="15.0" fill="rgb(210,24,5)" rx="2" ry="2" />
<text  x="381.87" y="399.5" >[unknown]</text>
</g>
<g >
<title>__sanitizer::WriteToFile (1,751,045 samples, 0.11%)</title><rect x="31.8" y="405" width="1.3" height="15.0" fill="rgb(205,0,0)" rx="2" ry="2" />
<text  x="34.81" y="415.5" ></text>
</g>
<g >
<title>[unknown] (843,413 samples, 0.05%)</title><rect x="10.0" y="181" width="0.6" height="15.0" fill="rgb(210,24,5)" rx="2" ry="2" />
<text  x="13.00" y="191.5" ></text>
</g>
<g >
<title>[unknown] (2,358,611 samples, 0.15%)</title><rect x="873.7" y="373" width="1.8" height="15.0" fill="rgb(210,24,5)" rx="2" ry="2" />
<text  x="876.70" y="383.5" ></text>
</g>
<g >
<title>[unknown] (5,580,251 samples, 0.36%)</title><rect x="1184.5" y="197" width="4.2" height="15.0" fill="rgb(210,24,5)" rx="2" ry="2" />
<text  x="1187.49" y="207.5" ></text>
</g>
<g >
<title>[unknown] (843,413 samples, 0.05%)</title><rect x="10.0" y="373" width="0.6" height="15.0" fill="rgb(210,24,5)" rx="2" ry="2" />
<text  x="13.00" y="383.5" ></text>
</g>
<g >
<title>[unknown] (38,514,348 samples, 2.49%)</title><rect x="1159.4" y="229" width="29.3" height="15.0" fill="rgb(210,24,5)" rx="2" ry="2" />
<text  x="1162.39" y="239.5" >[u..</text>
</g>
<g >
<title>[unknown] (558,915,670 samples, 36.10%)</title><rect x="447.0" y="277" width="426.0" height="15.0" fill="rgb(210,24,5)" rx="2" ry="2" />
<text  x="449.96" y="287.5" >[unknown]</text>
</g>
<g >
<title>[unknown] (2,858,644 samples, 0.18%)</title><rect x="194.3" y="229" width="2.2" height="15.0" fill="rgb(210,24,5)" rx="2" ry="2" />
<text  x="197.32" y="239.5" ></text>
</g>
<g >
<title>[unknown] (12,100,404 samples, 0.78%)</title><rect x="187.3" y="261" width="9.2" height="15.0" fill="rgb(210,24,5)" rx="2" ry="2" />
<text  x="190.28" y="271.5" ></text>
</g>
<g >
<title>[unknown] (92,275,480 samples, 5.96%)</title><rect x="1118.4" y="261" width="70.3" height="15.0" fill="rgb(210,24,5)" rx="2" ry="2" />
<text  x="1121.41" y="271.5" >[unknown]</text>
</g>
<g >
<title>__asan::AsanOnDeadlySignal (2,862,672 samples, 0.18%)</title><rect x="10.6" y="389" width="2.2" height="15.0" fill="rgb(250,211,50)" rx="2" ry="2" />
<text  x="13.64" y="399.5" ></text>
</g>
<g >
<title>[unknown] (2,358,611 samples, 0.15%)</title><rect x="873.7" y="341" width="1.8" height="15.0" fill="rgb(210,24,5)" rx="2" ry="2" />
<text  x="876.70" y="351.5" ></text>
</g>
<g >
<title>[unknown] (106,294,984 samples, 6.87%)</title><rect x="791.9" y="133" width="81.1" height="15.0" fill="rgb(210,24,5)" rx="2" ry="2" />
<text  x="794.94" y="143.5" >[unknown]</text>
</g>
<g >
<title>[unknown] (843,413 samples, 0.05%)</title><rect x="10.0" y="293" width="0.6" height="15.0" fill="rgb(210,24,5)" rx="2" ry="2" />
<text  x="13.00" y="303.5" ></text>
</g>
<g >
<title>[unknown] (330,394,658 samples, 21.34%)</title><rect x="936.9" y="357" width="251.8" height="15.0" fill="rgb(210,24,5)" rx="2" ry="2" />
<text  x="939.92" y="367.5" >[unknown]</text>
</g>
<g >
<title>[unknown] (843,413 samples, 0.05%)</title><rect x="10.0" y="341" width="0.6" height="15.0" fill="rgb(210,24,5)" rx="2" ry="2" />
<text  x="13.00" y="351.5" ></text>
</g>
<g >
<title>[unknown] (843,413 samples, 0.05%)</title><rect x="10.0" y="245" width="0.6" height="15.0" fill="rgb(210,24,5)" rx="2" ry="2" />
<text  x="13.00" y="255.5" ></text>
</g>
<g >
<title>[unknown] (64,986,071 samples, 4.20%)</title><rect x="823.4" y="85" width="49.6" height="15.0" fill="rgb(210,24,5)" rx="2" ry="2" />
<text  x="826.43" y="95.5" >[unk..</text>
</g>
<g >
<title>__sanitizer::StartReportDeadlySignal (1,907,908 samples, 0.12%)</title><rect x="30.4" y="405" width="1.4" height="15.0" fill="rgb(209,18,4)" rx="2" ry="2" />
<text  x="33.36" y="415.5" ></text>
</g>
<g >
<title>[unknown] (45,021,169 samples, 2.91%)</title><rect x="162.2" y="389" width="34.3" height="15.0" fill="rgb(210,24,5)" rx="2" ry="2" />
<text  x="165.18" y="399.5" >[u..</text>
</g>
<g >
<title>_dl_fixup (966,171 samples, 0.06%)</title><rect x="873.0" y="421" width="0.7" height="15.0" fill="rgb(250,210,50)" rx="2" ry="2" />
<text  x="875.96" y="431.5" ></text>
</g>
<g >
<title>[unknown] (631,204,764 samples, 40.77%)</title><rect x="391.9" y="325" width="481.1" height="15.0" fill="rgb(210,24,5)" rx="2" ry="2" />
<text  x="394.86" y="335.5" >[unknown]</text>
</g>
<g >
<title>[unknown] (75,398,843 samples, 4.87%)</title><rect x="103.8" y="309" width="57.5" height="15.0" fill="rgb(210,24,5)" rx="2" ry="2" />
<text  x="106.85" y="319.5" >[unkno..</text>
</g>
<g >
<title>__asan::AsanOnDeadlySignal (165,298,680 samples, 10.68%)</title><rect x="35.3" y="421" width="126.0" height="15.0" fill="rgb(250,211,50)" rx="2" ry="2" />
<text  x="38.33" y="431.5" >__asan::AsanOnD..</text>
</g>
<g >
<title>[unknown] (858,944,747 samples, 55.48%)</title><rect x="218.3" y="405" width="654.7" height="15.0" fill="rgb(210,24,5)" rx="2" ry="2" />
<text  x="221.27" y="415.5" >[unknown]</text>
</g>
<g >
<title>[unknown] (344,651,992 samples, 22.26%)</title><rect x="926.1" y="373" width="262.6" height="15.0" fill="rgb(210,24,5)" rx="2" ry="2" />
<text  x="929.05" y="383.5" >[unknown]</text>
</g>
<g >
<title>__sanitizer::WriteToFile (4,975,396 samples, 0.32%)</title><rect x="196.5" y="421" width="3.8" height="15.0" fill="rgb(205,0,0)" rx="2" ry="2" />
<text  x="199.50" y="431.5" ></text>
</g>
<g >
<title>[unknown] (3,670,384 samples, 0.24%)</title><rect x="1185.9" y="165" width="2.8" height="15.0" fill="rgb(210,24,5)" rx="2" ry="2" />
<text  x="1188.95" y="175.5" ></text>
</g>
<g >
<title>__sanitizer::SignalContext::GetAddress (390,744 samples, 0.03%)</title><rect x="13.5" y="389" width="0.3" height="15.0" fill="rgb(226,96,23)" rx="2" ry="2" />
<text  x="16.55" y="399.5" ></text>
</g>
<g >
<title>[unknown] (2,358,611 samples, 0.15%)</title><rect x="873.7" y="357" width="1.8" height="15.0" fill="rgb(210,24,5)" rx="2" ry="2" />
<text  x="876.70" y="367.5" ></text>
</g>
<g >
<title>VehicleExecutab (1,548,100,071 samples, 100.00%)</title><rect x="10.0" y="437" width="1180.0" height="15.0" fill="rgb(238,152,36)" rx="2" ry="2" />
<text  x="13.00" y="447.5" >VehicleExecutab</text>
</g>
<g >
<title>_dl_map_object (2,358,611 samples, 0.15%)</title><rect x="873.7" y="421" width="1.8" height="15.0" fill="rgb(248,199,47)" rx="2" ry="2" />
<text  x="876.70" y="431.5" ></text>
</g>
<g >
<title>[unknown] (843,413 samples, 0.05%)</title><rect x="10.0" y="357" width="0.6" height="15.0" fill="rgb(210,24,5)" rx="2" ry="2" />
<text  x="13.00" y="367.5" ></text>
</g>
<g >
<title>[unknown] (320,056,558 samples, 20.67%)</title><rect x="944.8" y="341" width="243.9" height="15.0" fill="rgb(210,24,5)" rx="2" ry="2" />
<text  x="947.80" y="351.5" >[unknown]</text>
</g>
<g >
<title>[unknown] (354,188,497 samples, 22.88%)</title><rect x="918.8" y="405" width="269.9" height="15.0" fill="rgb(210,24,5)" rx="2" ry="2" />
<text  x="921.78" y="415.5" >[unknown]</text>
</g>
<g >
<title>[unknown] (643,287,929 samples, 41.55%)</title><rect x="382.6" y="373" width="490.4" height="15.0" fill="rgb(210,24,5)" rx="2" ry="2" />
<text  x="385.65" y="383.5" >[unknown]</text>
</g>
<g >
<title>[unknown] (79,309,440 samples, 5.12%)</title><rect x="100.9" y="389" width="60.4" height="15.0" fill="rgb(210,24,5)" rx="2" ry="2" />
<text  x="103.87" y="399.5" >[unkno..</text>
</g>
<g >
<title>[unknown] (2,898,810 samples, 0.19%)</title><rect x="159.1" y="293" width="2.2" height="15.0" fill="rgb(210,24,5)" rx="2" ry="2" />
<text  x="162.11" y="303.5" ></text>
</g>
<g >
<title>[unknown] (36,557,089 samples, 2.36%)</title><rect x="168.6" y="309" width="27.9" height="15.0" fill="rgb(210,24,5)" rx="2" ry="2" />
<text  x="171.64" y="319.5" >[..</text>
</g>
<g >
<title>[unknown] (292,805,979 samples, 18.91%)</title><rect x="965.6" y="325" width="223.1" height="15.0" fill="rgb(210,24,5)" rx="2" ry="2" />
<text  x="968.57" y="335.5" >[unknown]</text>
</g>
<g >
<title>[unknown] (2,641,002 samples, 0.17%)</title><rect x="1186.7" y="133" width="2.0" height="15.0" fill="rgb(210,24,5)" rx="2" ry="2" />
<text  x="1189.73" y="143.5" ></text>
</g>
<g >
<title>[unknown] (525,368,969 samples, 33.94%)</title><rect x="472.5" y="261" width="400.5" height="15.0" fill="rgb(210,24,5)" rx="2" ry="2" />
<text  x="475.52" y="271.5" >[unknown]</text>
</g>
<g >
<title>[unknown] (344,931,629 samples, 22.28%)</title><rect x="610.1" y="229" width="262.9" height="15.0" fill="rgb(210,24,5)" rx="2" ry="2" />
<text  x="613.05" y="239.5" >[unknown]</text>
</g>
<g >
<title>[unknown] (186,683,682 samples, 12.06%)</title><rect x="1046.5" y="277" width="142.2" height="15.0" fill="rgb(210,24,5)" rx="2" ry="2" />
<text  x="1049.45" y="287.5" >[unknown]</text>
</g>
<g >
<title>__sanitizer::CatastrophicErrorWrite (1,867,165 samples, 0.12%)</title><rect x="28.9" y="405" width="1.5" height="15.0" fill="rgb(229,110,26)" rx="2" ry="2" />
<text  x="31.93" y="415.5" ></text>
</g>
<g >
<title>[unknown] (26,701,659 samples, 1.72%)</title><rect x="176.1" y="277" width="20.4" height="15.0" fill="rgb(210,24,5)" rx="2" ry="2" />
<text  x="179.15" y="287.5" ></text>
</g>
<g >
<title>_dl_fixup (10,408,896 samples, 0.67%)</title><rect x="16.7" y="389" width="7.9" height="15.0" fill="rgb(250,210,50)" rx="2" ry="2" />
<text  x="19.69" y="399.5" ></text>
</g>
<g >
<title>[unknown] (635,712,668 samples, 41.06%)</title><rect x="388.4" y="341" width="484.6" height="15.0" fill="rgb(210,24,5)" rx="2" ry="2" />
<text  x="391.42" y="351.5" >[unknown]</text>
</g>
<g >
<title>[unknown] (245,320,337 samples, 15.85%)</title><rect x="686.0" y="197" width="187.0" height="15.0" fill="rgb(210,24,5)" rx="2" ry="2" />
<text  x="688.98" y="207.5" >[unknown]</text>
</g>
<g >
<title>[unknown] (843,413 samples, 0.05%)</title><rect x="10.0" y="213" width="0.6" height="15.0" fill="rgb(210,24,5)" rx="2" ry="2" />
<text  x="13.00" y="223.5" ></text>
</g>
<g >
<title>[unknown] (1,841,393 samples, 0.12%)</title><rect x="871.6" y="53" width="1.4" height="15.0" fill="rgb(210,24,5)" rx="2" ry="2" />
<text  x="874.56" y="63.5" ></text>
</g>
<g >
<title>[unknown] (2,358,611 samples, 0.15%)</title><rect x="873.7" y="325" width="1.8" height="15.0" fill="rgb(210,24,5)" rx="2" ry="2" />
<text  x="876.70" y="335.5" ></text>
</g>
<g >
<title>[unknown] (167,195,189 samples, 10.80%)</title><rect x="745.5" y="165" width="127.5" height="15.0" fill="rgb(210,24,5)" rx="2" ry="2" />
<text  x="748.52" y="175.5" >[unknown]</text>
</g>
<g >
<title>[unknown] (843,413 samples, 0.05%)</title><rect x="10.0" y="325" width="0.6" height="15.0" fill="rgb(210,24,5)" rx="2" ry="2" />
<text  x="13.00" y="335.5" ></text>
</g>
<g >
<title>[unknown] (2,358,611 samples, 0.15%)</title><rect x="873.7" y="277" width="1.8" height="15.0" fill="rgb(210,24,5)" rx="2" ry="2" />
<text  x="876.70" y="287.5" ></text>
</g>
<g >
<title>[unknown] (637,681,241 samples, 41.19%)</title><rect x="386.9" y="357" width="486.1" height="15.0" fill="rgb(210,24,5)" rx="2" ry="2" />
<text  x="389.92" y="367.5" >[unknown]</text>
</g>
<g >
<title>__asan::ReportDeadlySignal (951,409 samples, 0.06%)</title><rect x="12.8" y="389" width="0.7" height="15.0" fill="rgb(213,38,9)" rx="2" ry="2" />
<text  x="15.82" y="399.5" ></text>
</g>
<g >
<title>[unknown] (223,290,019 samples, 14.42%)</title><rect x="1018.6" y="293" width="170.1" height="15.0" fill="rgb(210,24,5)" rx="2" ry="2" />
<text  x="1021.55" y="303.5" >[unknown]</text>
</g>
<g >
<title>[unknown] (34,626,373 samples, 2.24%)</title><rect x="170.1" y="293" width="26.4" height="15.0" fill="rgb(210,24,5)" rx="2" ry="2" />
<text  x="173.11" y="303.5" >[..</text>
</g>
<g >
<title>[unknown] (42,137,155 samples, 2.72%)</title><rect x="164.4" y="341" width="32.1" height="15.0" fill="rgb(210,24,5)" rx="2" ry="2" />
<text  x="167.38" y="351.5" >[u..</text>
</g>
<g >
<title>__sanitizer::internal_write (879,590,733 samples, 56.82%)</title><rect x="202.5" y="421" width="670.5" height="15.0" fill="rgb(212,36,8)" rx="2" ry="2" />
<text  x="205.54" y="431.5" >__sanitizer::internal_write</text>
</g>
<g >
<title>[unknown] (311,344,317 samples, 20.11%)</title><rect x="635.7" y="213" width="237.3" height="15.0" fill="rgb(210,24,5)" rx="2" ry="2" />
<text  x="638.65" y="223.5" >[unknown]</text>
</g>
<g >
<title>[unknown] (128,207,245 samples, 8.28%)</title><rect x="63.6" y="405" width="97.7" height="15.0" fill="rgb(210,24,5)" rx="2" ry="2" />
<text  x="66.60" y="415.5" >[unknown]</text>
</g>
<g >
<title>all (1,548,149,624 samples, 100%)</title><rect x="10.0" y="453" width="1180.0" height="15.0" fill="rgb(213,39,9)" rx="2" ry="2" />
<text  x="13.00" y="463.5" ></text>
</g>
<g >
<title>[unknown] (347,314,284 samples, 22.43%)</title><rect x="924.0" y="389" width="264.7" height="15.0" fill="rgb(210,24,5)" rx="2" ry="2" />
<text  x="927.02" y="399.5" >[unknown]</text>
</g>
<g >
<title>[unknown] (843,413 samples, 0.05%)</title><rect x="10.0" y="197" width="0.6" height="15.0" fill="rgb(210,24,5)" rx="2" ry="2" />
<text  x="13.00" y="207.5" ></text>
</g>
<g >
<title>[unknown] (578,396,117 samples, 37.36%)</title><rect x="432.1" y="309" width="440.9" height="15.0" fill="rgb(210,24,5)" rx="2" ry="2" />
<text  x="435.11" y="319.5" >[unknown]</text>
</g>
<g >
<title>[unknown] (1,841,393 samples, 0.12%)</title><rect x="871.6" y="37" width="1.4" height="15.0" fill="rgb(210,24,5)" rx="2" ry="2" />
<text  x="874.56" y="47.5" ></text>
</g>
<g >
<title>[unknown] (3,670,384 samples, 0.24%)</title><rect x="1185.9" y="181" width="2.8" height="15.0" fill="rgb(210,24,5)" rx="2" ry="2" />
<text  x="1188.95" y="191.5" ></text>
</g>
<g >
<title>__asan::AsanOnDeadlySignal (911,532 samples, 0.06%)</title><rect x="28.2" y="405" width="0.7" height="15.0" fill="rgb(250,211,50)" rx="2" ry="2" />
<text  x="31.24" y="415.5" ></text>
</g>
<g >
<title>[unknown] (77,291,182 samples, 4.99%)</title><rect x="102.4" y="325" width="58.9" height="15.0" fill="rgb(210,24,5)" rx="2" ry="2" />
<text  x="105.41" y="335.5" >[unkno..</text>
</g>
<g >
<title>[unknown] (843,413 samples, 0.05%)</title><rect x="10.0" y="261" width="0.6" height="15.0" fill="rgb(210,24,5)" rx="2" ry="2" />
<text  x="13.00" y="271.5" ></text>
</g>
<g >
<title>[unknown] (91,260,294 samples, 5.89%)</title><rect x="803.4" y="101" width="69.6" height="15.0" fill="rgb(210,24,5)" rx="2" ry="2" />
<text  x="806.40" y="111.5" >[unknown]</text>
</g>
<g >
<title>[unknown] (2,641,002 samples, 0.17%)</title><rect x="1186.7" y="117" width="2.0" height="15.0" fill="rgb(210,24,5)" rx="2" ry="2" />
<text  x="1189.73" y="127.5" ></text>
</g>
<g >
<title>[unknown] (45,021,169 samples, 2.91%)</title><rect x="162.2" y="373" width="34.3" height="15.0" fill="rgb(210,24,5)" rx="2" ry="2" />
<text  x="165.18" y="383.5" >[u..</text>
</g>
<g >
<title>[unknown] (40,552,075 samples, 2.62%)</title><rect x="842.1" y="69" width="30.9" height="15.0" fill="rgb(210,24,5)" rx="2" ry="2" />
<text  x="845.05" y="79.5" >[u..</text>
</g>
<g >
<title>[unknown] (843,413 samples, 0.05%)</title><rect x="10.0" y="229" width="0.6" height="15.0" fill="rgb(210,24,5)" rx="2" ry="2" />
<text  x="13.00" y="239.5" ></text>
</g>
<g >
<title>[unknown] (2,358,611 samples, 0.15%)</title><rect x="873.7" y="293" width="1.8" height="15.0" fill="rgb(210,24,5)" rx="2" ry="2" />
<text  x="876.70" y="303.5" ></text>
</g>
<g >
<title>[unknown] (23,926,999 samples, 1.55%)</title><rect x="10.0" y="405" width="18.2" height="15.0" fill="rgb(210,24,5)" rx="2" ry="2" />
<text  x="13.00" y="415.5" ></text>
</g>
<g >
<title>__sanitizer::internal_strlen (2,865,826 samples, 0.19%)</title><rect x="33.1" y="405" width="2.2" height="15.0" fill="rgb(208,17,4)" rx="2" ry="2" />
<text  x="36.14" y="415.5" ></text>
</g>
<g >
<title>[unknown] (44,141,703 samples, 2.85%)</title><rect x="162.9" y="357" width="33.6" height="15.0" fill="rgb(210,24,5)" rx="2" ry="2" />
<text  x="165.85" y="367.5" >[u..</text>
</g>
<g >
<title>[unknown] (7,631,952 samples, 0.49%)</title><rect x="190.7" y="245" width="5.8" height="15.0" fill="rgb(210,24,5)" rx="2" ry="2" />
<text  x="193.68" y="255.5" ></text>
</g>
<g >
<title>[unknown] (47,295,796 samples, 3.05%)</title><rect x="1152.7" y="245" width="36.0" height="15.0" fill="rgb(210,24,5)" rx="2" ry="2" />
<text  x="1155.70" y="255.5" >[un..</text>
</g>
<g >
<title>__sanitizer::internal_iserror (2,944,840 samples, 0.19%)</title><rect x="200.3" y="421" width="2.2" height="15.0" fill="rgb(248,198,47)" rx="2" ry="2" />
<text  x="203.29" y="431.5" ></text>
</g>
<g >
<title>[unknown] (843,413 samples, 0.05%)</title><rect x="10.0" y="389" width="0.6" height="15.0" fill="rgb(210,24,5)" rx="2" ry="2" />
<text  x="13.00" y="399.5" ></text>
</g>
<g >
<title>[unknown] (2,358,611 samples, 0.15%)</title><rect x="873.7" y="389" width="1.8" height="15.0" fill="rgb(210,24,5)" rx="2" ry="2" />
<text  x="876.70" y="399.5" ></text>
</g>
<g >
<title>[unknown] (148,028,508 samples, 9.56%)</title><rect x="760.1" y="149" width="112.9" height="15.0" fill="rgb(210,24,5)" rx="2" ry="2" />
<text  x="763.13" y="159.5" >[unknown]</text>
</g>
<g >
<title>do_lookup_x (844,842 samples, 0.05%)</title><rect x="27.6" y="389" width="0.6" height="15.0" fill="rgb(245,187,44)" rx="2" ry="2" />
<text  x="30.59" y="399.5" ></text>
</g>
</g>
</svg>
